<mxfile host="app.diagrams.net" modified="2023-09-18T14:21:41.674Z" agent="Mozilla/5.0 (Windows NT 10.0; Win64; x64; rv:109.0) Gecko/20100101 Firefox/117.0" etag="ym2r5-hgCI5ir3xvxIe8" version="21.7.5" type="device">
  <diagram id="szBT87NzyXCcZbLUtHF5" name="Seite-1">
    <mxGraphModel dx="1434" dy="792" grid="1" gridSize="10" guides="1" tooltips="1" connect="1" arrows="1" fold="1" page="1" pageScale="1" pageWidth="827" pageHeight="1169" math="0" shadow="0">
      <root>
        <mxCell id="0" />
        <mxCell id="1" parent="0" />
        <mxCell id="swtz01bCFzeQDl-sHaNn-5" value="" style="shape=folder;fontStyle=1;spacingTop=10;tabWidth=80;tabHeight=30;tabPosition=left;html=1;whiteSpace=wrap;" parent="1" vertex="1">
          <mxGeometry x="40" y="40" width="210" height="220" as="geometry" />
        </mxCell>
        <mxCell id="swtz01bCFzeQDl-sHaNn-6" value="model" style="text;html=1;strokeColor=none;fillColor=none;align=center;verticalAlign=middle;whiteSpace=wrap;rounded=0;" parent="1" vertex="1">
          <mxGeometry x="40" y="40" width="80" height="30.91" as="geometry" />
        </mxCell>
        <mxCell id="swtz01bCFzeQDl-sHaNn-8" value="&lt;div&gt;«interface»&lt;/div&gt;&lt;div&gt;&lt;b&gt;DrawingStrategy&lt;/b&gt;&lt;/div&gt;" style="html=1;whiteSpace=wrap;" parent="1" vertex="1">
          <mxGeometry x="85" y="190.45" width="120" height="50" as="geometry" />
        </mxCell>
        <mxCell id="swtz01bCFzeQDl-sHaNn-10" value="" style="shape=folder;fontStyle=1;spacingTop=10;tabWidth=80;tabHeight=30;tabPosition=left;html=1;whiteSpace=wrap;" parent="1" vertex="1">
          <mxGeometry x="40" y="270" width="210" height="120" as="geometry" />
        </mxCell>
        <mxCell id="swtz01bCFzeQDl-sHaNn-11" value="&lt;div&gt;plantuml&lt;/div&gt;" style="text;html=1;strokeColor=none;fillColor=none;align=center;verticalAlign=middle;whiteSpace=wrap;rounded=0;" parent="1" vertex="1">
          <mxGeometry x="40" y="270" width="80" height="30.91" as="geometry" />
        </mxCell>
        <mxCell id="swtz01bCFzeQDl-sHaNn-12" value="&lt;b&gt;PlantUMLDrawingStrategy&lt;/b&gt;" style="html=1;whiteSpace=wrap;" parent="1" vertex="1">
          <mxGeometry x="60" y="320" width="170" height="50" as="geometry" />
        </mxCell>
        <mxCell id="swtz01bCFzeQDl-sHaNn-16" value="" style="shape=folder;fontStyle=1;spacingTop=10;tabWidth=110;tabHeight=30;tabPosition=left;html=1;whiteSpace=wrap;" parent="1" vertex="1">
          <mxGeometry x="310" y="40" width="470" height="120" as="geometry" />
        </mxCell>
        <mxCell id="swtz01bCFzeQDl-sHaNn-17" value="&lt;b&gt;GeneratorOptions&lt;/b&gt;" style="html=1;whiteSpace=wrap;" parent="1" vertex="1">
          <mxGeometry x="330" y="90" width="120" height="50" as="geometry" />
        </mxCell>
        <mxCell id="swtz01bCFzeQDl-sHaNn-19" value="&lt;div&gt;«interface»&lt;/div&gt;&lt;div&gt;&lt;b&gt;DiagramGenerator&lt;/b&gt;&lt;/div&gt;" style="html=1;whiteSpace=wrap;" parent="1" vertex="1">
          <mxGeometry x="470" y="90" width="120" height="50" as="geometry" />
        </mxCell>
        <mxCell id="swtz01bCFzeQDl-sHaNn-20" value="&lt;div&gt;«interface»&lt;/div&gt;&lt;div&gt;&lt;b&gt;GraphProcessor&lt;/b&gt;&lt;/div&gt;" style="html=1;whiteSpace=wrap;" parent="1" vertex="1">
          <mxGeometry x="640" y="90" width="120" height="50" as="geometry" />
        </mxCell>
        <mxCell id="swtz01bCFzeQDl-sHaNn-21" value="diagramgenerator" style="text;html=1;strokeColor=none;fillColor=none;align=center;verticalAlign=middle;whiteSpace=wrap;rounded=0;" parent="1" vertex="1">
          <mxGeometry x="310" y="40" width="110" height="30.91" as="geometry" />
        </mxCell>
        <mxCell id="swtz01bCFzeQDl-sHaNn-22" value="" style="shape=folder;fontStyle=1;spacingTop=10;tabWidth=80;tabHeight=30;tabPosition=left;html=1;whiteSpace=wrap;" parent="1" vertex="1">
          <mxGeometry x="310" y="200" width="470" height="190" as="geometry" />
        </mxCell>
        <mxCell id="swtz01bCFzeQDl-sHaNn-23" value="pcm" style="text;html=1;strokeColor=none;fillColor=none;align=center;verticalAlign=middle;whiteSpace=wrap;rounded=0;" parent="1" vertex="1">
          <mxGeometry x="310" y="200" width="85.71428571428572" height="30.909090909090907" as="geometry" />
        </mxCell>
        <mxCell id="swtz01bCFzeQDl-sHaNn-24" value="&lt;b&gt;PCMDiagramGenerator&lt;br&gt;&lt;/b&gt;" style="html=1;whiteSpace=wrap;" parent="1" vertex="1">
          <mxGeometry x="387" y="250" width="146" height="50" as="geometry" />
        </mxCell>
        <mxCell id="swtz01bCFzeQDl-sHaNn-25" value="&lt;b&gt;PCMGraphProcessor&lt;/b&gt;" style="html=1;whiteSpace=wrap;" parent="1" vertex="1">
          <mxGeometry x="614" y="250" width="146" height="50" as="geometry" />
        </mxCell>
        <mxCell id="swtz01bCFzeQDl-sHaNn-26" value="&lt;b&gt;PCMDataFlowElementFactory&lt;/b&gt;" style="html=1;whiteSpace=wrap;" parent="1" vertex="1">
          <mxGeometry x="330" y="320" width="180" height="50" as="geometry" />
        </mxCell>
        <mxCell id="swtz01bCFzeQDl-sHaNn-29" value="" style="endArrow=open;html=1;endSize=12;startArrow=diamondThin;startSize=14;startFill=1;align=left;verticalAlign=bottom;entryX=0.5;entryY=1;entryDx=0;entryDy=0;exitX=0.25;exitY=0;exitDx=0;exitDy=0;" parent="1" source="swtz01bCFzeQDl-sHaNn-24" target="swtz01bCFzeQDl-sHaNn-17" edge="1">
          <mxGeometry x="-0.1189" y="-36" relative="1" as="geometry">
            <mxPoint x="490" y="190" as="sourcePoint" />
            <mxPoint x="490" y="260" as="targetPoint" />
            <mxPoint x="1" as="offset" />
          </mxGeometry>
        </mxCell>
        <mxCell id="swtz01bCFzeQDl-sHaNn-31" value="" style="endArrow=block;dashed=1;endFill=0;endSize=12;html=1;rounded=0;entryX=0.5;entryY=1;entryDx=0;entryDy=0;exitX=0.75;exitY=0;exitDx=0;exitDy=0;" parent="1" source="swtz01bCFzeQDl-sHaNn-24" target="swtz01bCFzeQDl-sHaNn-19" edge="1">
          <mxGeometry width="160" relative="1" as="geometry">
            <mxPoint x="330" y="260" as="sourcePoint" />
            <mxPoint x="490" y="260" as="targetPoint" />
          </mxGeometry>
        </mxCell>
        <mxCell id="swtz01bCFzeQDl-sHaNn-32" value="" style="endArrow=open;html=1;endSize=12;startArrow=diamondThin;startSize=14;startFill=1;edgeStyle=orthogonalEdgeStyle;align=left;verticalAlign=bottom;rounded=0;exitX=1;exitY=0.5;exitDx=0;exitDy=0;entryX=0;entryY=0.5;entryDx=0;entryDy=0;" parent="1" source="swtz01bCFzeQDl-sHaNn-19" target="swtz01bCFzeQDl-sHaNn-20" edge="1">
          <mxGeometry x="-0.2" y="25" relative="1" as="geometry">
            <mxPoint x="330" y="260" as="sourcePoint" />
            <mxPoint x="490" y="260" as="targetPoint" />
            <mxPoint as="offset" />
          </mxGeometry>
        </mxCell>
        <mxCell id="swtz01bCFzeQDl-sHaNn-33" value="&lt;i&gt;&lt;b&gt;DataFlowElementFactory&lt;/b&gt;&lt;/i&gt;" style="html=1;whiteSpace=wrap;" parent="1" vertex="1">
          <mxGeometry x="60" y="90" width="170" height="50" as="geometry" />
        </mxCell>
        <mxCell id="swtz01bCFzeQDl-sHaNn-35" value="" style="endArrow=block;dashed=1;endFill=0;endSize=12;html=1;rounded=0;exitX=0.5;exitY=0;exitDx=0;exitDy=0;entryX=0.5;entryY=1;entryDx=0;entryDy=0;" parent="1" source="swtz01bCFzeQDl-sHaNn-25" target="swtz01bCFzeQDl-sHaNn-20" edge="1">
          <mxGeometry width="160" relative="1" as="geometry">
            <mxPoint x="420" y="220" as="sourcePoint" />
            <mxPoint x="580" y="220" as="targetPoint" />
          </mxGeometry>
        </mxCell>
        <mxCell id="swtz01bCFzeQDl-sHaNn-36" value="" style="endArrow=open;html=1;endSize=12;startArrow=diamondThin;startSize=14;startFill=1;edgeStyle=orthogonalEdgeStyle;align=left;verticalAlign=bottom;rounded=0;exitX=1;exitY=0.5;exitDx=0;exitDy=0;entryX=0.5;entryY=1;entryDx=0;entryDy=0;" parent="1" source="swtz01bCFzeQDl-sHaNn-26" target="swtz01bCFzeQDl-sHaNn-25" edge="1">
          <mxGeometry x="-0.4595" y="35" relative="1" as="geometry">
            <mxPoint x="350" y="220" as="sourcePoint" />
            <mxPoint x="510" y="220" as="targetPoint" />
            <mxPoint as="offset" />
          </mxGeometry>
        </mxCell>
        <mxCell id="swtz01bCFzeQDl-sHaNn-38" value="" style="endArrow=block;endSize=16;endFill=0;html=1;rounded=0;exitX=0;exitY=0.5;exitDx=0;exitDy=0;entryX=1;entryY=0.5;entryDx=0;entryDy=0;edgeStyle=orthogonalEdgeStyle;" parent="1" source="swtz01bCFzeQDl-sHaNn-26" target="swtz01bCFzeQDl-sHaNn-33" edge="1">
          <mxGeometry width="160" relative="1" as="geometry">
            <mxPoint x="350" y="240" as="sourcePoint" />
            <mxPoint x="510" y="240" as="targetPoint" />
          </mxGeometry>
        </mxCell>
        <mxCell id="swtz01bCFzeQDl-sHaNn-15" value="" style="endArrow=block;dashed=1;endFill=0;endSize=12;html=1;rounded=0;exitX=0.5;exitY=0;exitDx=0;exitDy=0;entryX=0.5;entryY=1;entryDx=0;entryDy=0;" parent="1" source="swtz01bCFzeQDl-sHaNn-12" target="swtz01bCFzeQDl-sHaNn-8" edge="1">
          <mxGeometry width="160" relative="1" as="geometry">
            <mxPoint x="330" y="260" as="sourcePoint" />
            <mxPoint x="490" y="260" as="targetPoint" />
          </mxGeometry>
        </mxCell>
      </root>
    </mxGraphModel>
  </diagram>
</mxfile>
